custom-analysis
version=1
nRows=4
nColumns=98
inDegrees=no

This file contains tibia displacement and acting force.

Units are S.I. units (seconds, meters, Newtons, ...)
Angles are in degrees.

endheader
time	APT	SIT	knee_angle	aACL_R_force	pACL_R_force	aPCL_R_force	pPCL_R_force	aMCL_R_force	mMCL_R_force	pMCL_R_force	aLCL_R_force	mLCL_R_force	pLCL_R_force	aPCL_L_force	pPCL_L_force	aMCL_L_force	aLCL_L_force	aACL_R_length	pACL_R_length	aPCL_R_length	pPCL_R_length	aMCL_R_length	mMCL_R_length	pMCL_R_length	aLCL_R_length	mLCL_R_length	pLCL_R_length	aPCL_L_length	pPCL_L_length	aMCL_L_length	aLCL_L_length	aACL_R_strain	pACL_R_strain	aPCL_R_strain	pPCL_R_strain	aMCL_R_strain	mMCL_R_strain	pMCL_R_strain	aLCL_R_strain	mLCL_R_strain	pLCL_R_strain	aPCL_L_strain	pPCL_L_strain	aMCL_L_strain	aLCL_L_strain	femur_lat_meniscii_r.femur_lat_r.force.X	femur_lat_meniscii_r.femur_lat_r.force.Y	femur_lat_meniscii_r.femur_lat_r.force.Z	femur_lat_meniscii_r.femur_lat_r.torque.X	femur_lat_meniscii_r.femur_lat_r.torque.Y	femur_lat_meniscii_r.femur_lat_r.torque.Z	femur_lat_meniscii_r.meniscus_lat_r.force.X	femur_lat_meniscii_r.meniscus_lat_r.force.Y	femur_lat_meniscii_r.meniscus_lat_r.force.Z	femur_lat_meniscii_r.meniscus_lat_r.torque.X	femur_lat_meniscii_r.meniscus_lat_r.torque.Y	femur_lat_meniscii_r.meniscus_lat_r.torque.Z	femur_med_meniscii_r.femur_med_r.force.X	femur_med_meniscii_r.femur_med_r.force.Y	femur_med_meniscii_r.femur_med_r.force.Z	femur_med_meniscii_r.femur_med_r.torque.X	femur_med_meniscii_r.femur_med_r.torque.Y	femur_med_meniscii_r.femur_med_r.torque.Z	femur_med_meniscii_r.meniscus_med_r.force.X	femur_med_meniscii_r.meniscus_med_r.force.Y	femur_med_meniscii_r.meniscus_med_r.force.Z	femur_med_meniscii_r.meniscus_med_r.torque.X	femur_med_meniscii_r.meniscus_med_r.torque.Y	femur_med_meniscii_r.meniscus_med_r.torque.Z	femur_med_tibia_r.tibia_upper_r.force.X	femur_med_tibia_r.tibia_upper_r.force.Y	femur_med_tibia_r.tibia_upper_r.force.Z	femur_med_tibia_r.tibia_upper_r.torque.X	femur_med_tibia_r.tibia_upper_r.torque.Y	femur_med_tibia_r.tibia_upper_r.torque.Z	femur_med_tibia_r.femur_med_r.force.X	femur_med_tibia_r.femur_med_r.force.Y	femur_med_tibia_r.femur_med_r.force.Z	femur_med_tibia_r.femur_med_r.torque.X	femur_med_tibia_r.femur_med_r.torque.Y	femur_med_tibia_r.femur_med_r.torque.Z	femur_lat_tibia_r.tibia_upper_r.force.X	femur_lat_tibia_r.tibia_upper_r.force.Y	femur_lat_tibia_r.tibia_upper_r.force.Z	femur_lat_tibia_r.tibia_upper_r.torque.X	femur_lat_tibia_r.tibia_upper_r.torque.Y	femur_lat_tibia_r.tibia_upper_r.torque.Z	femur_lat_tibia_r.femur_lat_r.force.X	femur_lat_tibia_r.femur_lat_r.force.Y	femur_lat_tibia_r.femur_lat_r.force.Z	femur_lat_tibia_r.femur_lat_r.torque.X	femur_lat_tibia_r.femur_lat_r.torque.Y	femur_lat_tibia_r.femur_lat_r.torque.Z	femur_lat_meniscii_force_r	femur_med_meniscii_force_r	femur_lat_tibia_force_r	femur_med_tibia_force_r
      0.16700363	      0.01294193	      0.01782850	     58.32739241	     -5.18313724	      0.00000000	    608.16223588	    392.61001737	      0.00000000	      0.00000000	      0.00000000	      0.00000000	      0.00000000	      0.00000000	      0.00000000	      0.00000000	      0.00000001	      0.00000000	      0.03107466	      0.02381050	      0.03511766	      0.03254123	      0.05967932	      0.05924748	      0.05627703	      0.05236685	      0.04757745	      0.04267413	      0.01525851	      0.01651186	      0.06550154	      0.04489616	      0.00223071	     -0.04981084	      0.12935583	      0.08877982	     -0.00579201	     -0.00913181	     -0.04173418	     -0.06449672	     -0.15520890	     -0.18471662	      0.00000079	     -0.32847694	      0.00000060	     -0.00000086	     91.75154611	    152.62552666	     16.85928159	    -10.45793300	      2.21535595	     35.94084773	    -91.75154611	   -152.62552666	    -16.85928159	      4.17926079	     -2.71373027	      2.74066565	     22.11722349	     17.61772939	      9.86985836	     -3.58087745	     -0.50418531	      8.88183048	    -22.11722349	    -17.61772939	     -9.86985836	     -0.20691965	      0.26180127	      0.03884579	   -813.98729356	   -703.47758990	    227.13003757	    -16.12661496	     18.24543590	     -1.32791015	    813.98729356	    703.47758990	   -227.13003757	    105.02619791	    -14.73501883	    330.79833804	      0.00000000	      0.00000000	      0.00000000	      0.00000000	      0.00000000	      0.00000000	      0.00000000	      0.00000000	      0.00000000	      0.00000000	      0.00000000	      0.00000000	    178.87742445	     29.94945855	      0.00000000	   1099.56540849
      0.16727138	      0.01295747	      0.01788038	     58.47234533	     -5.13944226	      0.00000000	    610.92045365	    393.99565186	      0.00000000	      0.00000000	      0.00000000	      0.00000000	      0.00000000	      0.00000000	      0.00000000	      0.00000000	      0.00000001	      0.00000000	      0.03107110	      0.02380877	      0.03513366	      0.03255052	      0.05969306	      0.05925038	      0.05627308	      0.05235712	      0.04756164	      0.04265541	      0.01525851	      0.01651186	      0.06550154	      0.04489616	      0.00211588	     -0.04988005	      0.12987044	      0.08909061	     -0.00556319	     -0.00908323	     -0.04180147	     -0.06467069	     -0.15548975	     -0.18507428	      0.00000079	     -0.32847694	      0.00000060	     -0.00000086	     92.14451629	    152.96157876	     16.93233972	    -10.49801708	      2.22310954	     36.09082238	    -92.14451629	   -152.96157876	    -16.93233972	      4.19169453	     -2.72491435	      2.76086073	     22.15832666	     17.38668163	      9.77348343	     -3.54765435	     -0.50419231	      8.89806047	    -22.15832666	    -17.38668163	     -9.77348343	     -0.20356045	      0.26318871	      0.03538649	   -816.63815296	   -703.19575772	    227.73116560	    -16.11268431	     18.31105390	     -1.28628571	    816.63815296	    703.19575772	   -227.73116560	    105.25693244	    -14.78507721	    331.84291285	      0.00000000	      0.00000000	      0.00000000	      0.00000000	      0.00000000	      0.00000000	      0.00000000	      0.00000000	      0.00000000	      0.00000000	      0.00000000	      0.00000000	    179.37268629	     29.81290185	      0.00000000	   1101.47339066
      0.16775458	      0.01298526	      0.01797406	     58.73396408	     -5.03418643	      0.00000000	    615.86089866	    396.46072154	      0.00000000	      0.00000000	      0.00000000	      0.00000000	      0.00000000	      0.00000000	      0.00000000	      0.00000000	      0.00000001	      0.00000000	      0.03106479	      0.02380579	      0.03516239	      0.03256724	      0.05971786	      0.05925575	      0.05626620	      0.05233930	      0.04753292	      0.04262154	      0.01525851	      0.01651186	      0.06550154	      0.04489616	      0.00191209	     -0.04999915	      0.13079431	      0.08964989	     -0.00514997	     -0.00899351	     -0.04191863	     -0.06498898	     -0.15599961	     -0.18572141	      0.00000079	     -0.32847694	      0.00000060	     -0.00000086	     93.90767708	    152.59833011	     17.37337575	    -10.67444364	      2.26537467	     36.80841490	    -93.90767708	   -152.59833011	    -17.37337575	      4.19712290	     -2.78160968	      2.73754065	     22.34065180	     17.19309313	      9.60633074	     -3.48533246	     -0.50654113	      8.96933774	    -22.34065180	    -17.19309313	     -9.60633074	     -0.20211982	      0.26773923	      0.03366593	   -821.89798910	   -701.37602436	    229.06335466	    -16.07432218	     18.43959951	     -1.26724105	    821.89798910	    701.37602436	   -229.06335466	    105.75391199	    -14.88102585	    333.94102419	      0.00000000	      0.00000000	      0.00000000	      0.00000000	      0.00000000	      0.00000000	      0.00000000	      0.00000000	      0.00000000	      0.00000000	      0.00000000	      0.00000000	    180.01871112	     29.78235659	      0.00000000	   1104.49746604
      0.16783762	      0.01298999	      0.01799018	     58.77893190	     -5.02945293	      0.00000000	    616.71039048	    396.89396492	      0.00000000	      0.00000000	      0.00000000	      0.00000000	      0.00000000	      0.00000000	      0.00000000	      0.00000000	      0.00000001	      0.00000000	      0.03106371	      0.02380529	      0.03516731	      0.03257011	      0.05972213	      0.05925668	      0.05626505	      0.05233621	      0.04752796	      0.04261571	      0.01525851	      0.01651186	      0.06550154	      0.04489616	      0.00187743	     -0.05001896	      0.13095253	      0.08974587	     -0.00507891	     -0.00897783	     -0.04193820	     -0.06504423	     -0.15608762	     -0.18583284	      0.00000079	     -0.32847694	      0.00000060	     -0.00000086	     94.14295504	    152.56563208	     17.41730588	    -10.69270157	      2.27133959	     36.90365411	    -94.14295504	   -152.56563208	    -17.41730588	      4.19835400	     -2.78928217	      2.73607621	     22.33860378	     17.13500042	      9.57326617	     -3.47340561	     -0.50618582	      8.96824952	    -22.33860378	    -17.13500042	     -9.57326617	     -0.20144868	      0.26790990	      0.03327309	   -822.85621929	   -700.90934781	    228.81187477	    -16.05300812	     18.44653483	     -1.26993932	    822.85621929	    700.90934781	   -228.81187477	    105.63860878	    -14.89262442	    334.32537085	      0.00000000	      0.00000000	      0.00000000	      0.00000000	      0.00000000	      0.00000000	      0.00000000	      0.00000000	      0.00000000	      0.00000000	      0.00000000	      0.00000000	    180.11810187	     29.73665892	      0.00000000	   1104.86250072
